<svg width="279" height="280" viewBox="0 0 279 280" fill="none" xmlns="http://www.w3.org/2000/svg">
<path d="M171.562 51.6875L185.062 82.0625L132.75 133.812C129.375 137.188 129.375 143.375 132.75 146.75C134.438 148.438 136.688 149 138.938 149C141.75 149 144 148.438 145.688 146.75L197.438 94.4375L227.812 107.938C228.375 108.5 230.062 108.5 231.188 108.5C234 108.5 237.375 107.375 239.625 105.125L275.062 69.6875C281.25 63.5 279 53.375 270.562 50.5625L239.625 39.875L228.938 8.9375C227.25 3.875 222.75 0.5 218.25 0.5C215.438 0.5 212.062 1.625 209.812 4.4375L174.375 39.875C172.125 42.125 170.438 45.5 170.438 48.3125C170.438 49.4375 171 50.5625 171.562 51.6875ZM215.438 24.125L222.188 45.5L225 54.5L234 57.3125L255.375 64.0625L230.062 89.375L202.5 77L190.125 49.4375L215.438 24.125ZM272.25 98.375L257.625 113C259.312 121.438 261 131 261 140C261 207.5 206.438 261.5 139.5 261.5C72 261.5 18 207.5 18 140C18 73.0625 72 18.5 139.5 18.5C148.5 18.5 158.062 20.1875 166.5 21.875L181.125 7.25C169.875 3.875 151.312 0.5 139.5 0.5C62.4375 0.5 0 63.5 0 140C0 217.062 62.4375 279.5 139.5 279.5C216 279.5 279 217.062 279 140C279 125.375 276.188 111.312 272.25 98.375ZM154.125 57.3125C153.562 55.0625 153 51.6875 153 49.4375C148.5 48.875 144 47.75 139.5 47.75C88.3125 47.75 47.25 89.375 47.25 140C47.25 191.188 88.3125 232.25 139.5 232.25C190.125 232.25 231.75 191.188 231.75 140C231.75 135.5 230.625 131 230.062 126.5C227.25 126.5 224.438 125.938 222.188 125.375C221.062 124.812 222.75 125.375 210.375 120.312C212.062 126.5 213.75 133.25 213.75 140C213.75 181.062 180 214.25 139.5 214.25C98.4375 214.25 65.25 181.062 65.25 140C65.25 99.5 98.4375 65.75 139.5 65.75C146.25 65.75 153 67.4375 159.188 69.125C154.125 56.75 154.688 58.4375 154.125 57.3125ZM139.5 95C114.188 95 94.5 115.25 94.5 140C94.5 165.312 114.188 185 139.5 185C164.25 185 184.5 165.312 184.5 140C184.5 138.312 183.938 136.062 183.375 133.812L158.062 159.125C153.562 164.188 146.812 167 139.5 167C124.312 167 112.5 155.188 112.5 140C112.5 132.688 115.312 125.938 120.375 121.438L145.688 96.125C143.438 95.5625 141.188 95 139.5 95Z" fill="#103673"/>
</svg>
