<svg width="324" height="288" viewBox="0 0 324 288" fill="none" xmlns="http://www.w3.org/2000/svg">
<path d="M45 198H9C3.9375 198 0 202.5 0 207V279C0 284.062 3.9375 288 9 288H45C49.5 288 54 284.062 54 279V207C54 202.5 49.5 198 45 198ZM36 270H18V216H36V270ZM315 108H279C273.938 108 270 112.5 270 117V279C270 284.062 273.938 288 279 288H315C319.5 288 324 284.062 324 279V117C324 112.5 319.5 108 315 108ZM306 270H288V126H306V270ZM282.375 50.0625C286.875 52.875 291.375 54 297 54C311.625 54 324 42.1875 324 27C324 12.375 311.625 0 297 0C281.812 0 270 12.375 270 27C270 30.375 270.562 33.1875 271.125 36L221.062 76.5C216.562 73.6875 212.062 72 207 72C201.375 72 196.875 73.6875 192.375 76.5L142.312 36C142.875 33.1875 144 30.375 144 27C144 12.375 131.625 0 117 0C101.812 0 90 12.375 90 27C90 31.5 90.5625 35.4375 92.25 38.8125L38.25 92.8125C34.875 91.125 30.9375 90 27 90C11.8125 90 0 102.375 0 117C0 132.188 11.8125 144 27 144C41.625 144 54 132.188 54 117C54 113.062 52.875 109.125 51.1875 105.75L105.188 51.75C108.562 53.4375 112.5 54 117 54C122.062 54 126.562 52.875 131.062 50.0625L181.125 90.5625C180.562 93.375 180 96.1875 180 99C180 114.188 191.812 126 207 126C221.625 126 234 114.188 234 99C234 96.1875 232.875 93.375 232.312 90.5625L282.375 50.0625ZM297 18C301.5 18 306 22.5 306 27C306 32.0625 301.5 36 297 36C291.938 36 288 32.0625 288 27C288 22.5 291.938 18 297 18ZM27 126C21.9375 126 18 122.062 18 117C18 112.5 21.9375 108 27 108C31.5 108 36 112.5 36 117C36 122.062 31.5 126 27 126ZM117 36C111.938 36 108 32.0625 108 27C108 22.5 111.938 18 117 18C121.5 18 126 22.5 126 27C126 32.0625 121.5 36 117 36ZM207 108C201.938 108 198 104.062 198 99C198 94.5 201.938 90 207 90C211.5 90 216 94.5 216 99C216 104.062 211.5 108 207 108ZM135 108H99C93.9375 108 90 112.5 90 117V279C90 284.062 93.9375 288 99 288H135C139.5 288 144 284.062 144 279V117C144 112.5 139.5 108 135 108ZM126 270H108V126H126V270ZM225 180H189C183.938 180 180 184.5 180 189V279C180 284.062 183.938 288 189 288H225C229.5 288 234 284.062 234 279V189C234 184.5 229.5 180 225 180ZM216 270H198V198H216V270Z" fill="#103673"/>
</svg>
