<svg width="216" height="288" viewBox="0 0 216 288" fill="none" xmlns="http://www.w3.org/2000/svg">
<path d="M189 36H138.938C138.938 34.875 139.5 33.1875 139.5 31.5C139.5 14.625 124.875 0 108 0C90.5625 0 76.5 14.625 76.5 31.5C76.5 33.1875 76.5 34.875 76.5 36H27C11.8125 36 0 48.375 0 63V261C0 276.188 11.8125 288 27 288H189C203.625 288 216 276.188 216 261V63C216 48.375 203.625 36 189 36ZM108 18C115.312 18 121.5 24.1875 121.5 31.5C121.5 39.375 115.312 45 108 45C100.125 45 94.5 39.375 94.5 31.5C94.5 24.1875 100.125 18 108 18ZM198 261C198 266.062 193.5 270 189 270H27C21.9375 270 18 266.062 18 261V63C18 58.5 21.9375 54 27 54H54V65.25C54 69.1875 56.8125 72 60.75 72H155.25C158.625 72 162 69.1875 162 65.25V54H189C193.5 54 198 58.5 198 63V261ZM63 184.5C55.125 184.5 49.5 190.688 49.5 198C49.5 205.875 55.125 211.5 63 211.5C70.3125 211.5 76.5 205.875 76.5 198C76.5 190.688 70.3125 184.5 63 184.5ZM157.5 189H94.5C91.6875 189 90 191.25 90 193.5V202.5C90 205.312 91.6875 207 94.5 207H157.5C159.75 207 162 205.312 162 202.5V193.5C162 191.25 159.75 189 157.5 189ZM70.875 152.438L106.875 116.438C108 115.312 108 113.625 106.875 112.5L99.5625 105.188C98.4375 104.062 96.75 104.062 95.625 105.188L68.625 131.625L57.375 119.812C55.6875 118.688 54 118.688 52.875 119.812L45.5625 127.125C44.4375 128.25 44.4375 129.938 45.5625 131.062L66.375 152.438C67.5 153.562 69.75 153.562 70.875 152.438ZM157.5 135H113.625L95.625 153H157.5C159.75 153 162 151.312 162 148.5V139.5C162 137.25 159.75 135 157.5 135Z" fill="#103673"/>
</svg>
