<svg width="288" height="252" viewBox="0 0 288 252" fill="none" xmlns="http://www.w3.org/2000/svg">
<path d="M227.25 198C230.625 198 234 195.188 234 191.25V168.75C234 165.375 230.625 162 227.25 162H204.75C200.812 162 198 165.375 198 168.75V191.25C198 195.188 200.812 198 204.75 198H227.25ZM162 191.25V168.75C162 165.375 158.625 162 155.25 162H132.75C128.812 162 126 165.375 126 168.75V191.25C126 195.188 128.812 198 132.75 198H155.25C158.625 198 162 195.188 162 191.25ZM90 191.25V168.75C90 165.375 86.625 162 83.25 162H60.75C56.8125 162 54 165.375 54 168.75V191.25C54 195.188 56.8125 198 60.75 198H83.25C86.625 198 90 195.188 90 191.25ZM288 85.5C288 75.375 277.312 69.1875 268.312 73.6875L180 118.125V85.5C180 75.375 169.312 69.1875 160.312 73.6875L72 118.125V13.5C72 6.1875 65.8125 0 58.5 0H13.5C5.625 0 0 6.1875 0 13.5V238.5C0 246.375 5.625 252 13.5 252H274.5C281.812 252 288 246.375 288 238.5V85.5ZM54 139.5C54 142.875 57.375 145.125 60.1875 144L162 92.8125V139.5C162 142.875 165.375 145.125 168.188 144L270 92.8125V234H18V18H54V139.5Z" fill="#103673"/>
</svg>
