<svg width="90" height="77" viewBox="0 0 90 77" fill="none" xmlns="http://www.w3.org/2000/svg">
<path d="M45 0L90 77H0L45 0Z" fill="#1AADCD"/>
<path d="M37.0312 66V44.9766H30.4922V66H37.0312ZM33.7266 42.1641C35.8359 42.1641 37.5234 40.4062 37.5234 38.2969C37.5234 36.2578 35.8359 34.5703 33.7266 34.5703C31.6875 34.5703 30 36.2578 30 38.2969C30 40.4062 31.6875 42.1641 33.7266 42.1641ZM61.4297 66H61.5V54.4688C61.5 48.8438 60.2344 44.4844 53.625 44.4844C50.4609 44.4844 48.3516 46.2422 47.4375 47.8594H47.3672V44.9766H41.1094V66H47.6484V55.5938C47.6484 52.8516 48.1406 50.25 51.5156 50.25C54.8906 50.25 54.9609 53.3438 54.9609 55.8047V66H61.4297Z" fill="white"/>
</svg>
