<svg width="768" height="206" viewBox="0 0 768 206" fill="none" xmlns="http://www.w3.org/2000/svg">
<path fill-rule="evenodd" clip-rule="evenodd" d="M575.74 141.5L495.2 2L414.659 141.5H442.486L496.199 48L549.912 141.5H575.74Z" fill="white"/>
<path d="M496.2 82L531.2 142H461.2L496.2 82Z" fill="#1AADCD"/>
<path d="M74.8 144C60.6667 144 47.8667 140.933 36.4 134.8C25.0667 128.533 16.1333 119.933 9.6 109C3.2 98.0667 0 85.7333 0 72C0 58.2667 3.26667 45.9333 9.8 35C16.3333 24.0667 25.2667 15.5333 36.6 9.4C48.0667 3.13333 60.8667 0 75 0C86.4667 0 96.9333 2 106.4 6.00001C115.867 10 123.867 15.8 130.4 23.4L113.6 39.2C103.467 28.2667 91 22.8 76.2 22.8C66.6 22.8 58 24.9333 50.4 29.2C42.8 33.3333 36.8667 39.1333 32.6 46.6C28.3333 54.0667 26.2 62.5333 26.2 72C26.2 81.4667 28.3333 89.9333 32.6 97.4C36.8667 104.867 42.8 110.733 50.4 115C58 119.133 66.6 121.2 76.2 121.2C91 121.2 103.467 115.667 113.6 104.6L130.4 120.6C123.867 128.2 115.8 134 106.2 138C96.7333 142 86.2667 144 74.8 144Z" fill="white"/>
<path d="M260.312 120.2V142H155.312V2H257.513V23.8H181.312V60.2H248.913V81.6H181.312V120.2H260.312Z" fill="white"/>
<path d="M398.097 120V142H278.697V124.6L361.097 24H280.097V2H395.497V19.4L313.097 120H398.097Z" fill="white"/>
<path d="M686.8 142L658.2 101C657 101.133 655.2 101.2 652.8 101.2H621.2V142H595.2V2H652.8C664.934 2 675.467 4 684.4 8.00001C693.467 12 700.4 17.7333 705.2 25.2C710 32.6667 712.4 41.5333 712.4 51.8C712.4 62.3333 709.8 71.4 704.6 79C699.534 86.6 692.2 92.2667 682.6 96L714.8 142H686.8ZM686.2 51.8C686.2 42.8667 683.267 36 677.4 31.2C671.534 26.4 662.934 24 651.6 24H621.2V79.8H651.6C662.934 79.8 671.534 77.4 677.4 72.6C683.267 67.6667 686.2 60.7333 686.2 51.8Z" fill="white"/>
<path d="M741.489 2H767.489V142H741.489V2Z" fill="white"/>
<path d="M79.5373 197.432C76.9693 197.432 74.6413 196.88 72.5533 195.776C70.4893 194.648 68.8573 193.1 67.6573 191.132C66.4813 189.14 65.8933 186.896 65.8933 184.4C65.8933 181.904 66.4813 179.672 67.6573 177.704C68.8573 175.712 70.4893 174.164 72.5533 173.06C74.6413 171.932 76.9813 171.368 79.5733 171.368C81.7573 171.368 83.7253 171.752 85.4773 172.52C87.2533 173.288 88.7413 174.392 89.9413 175.832L86.1973 179.288C84.4933 177.32 82.3813 176.336 79.8613 176.336C78.3013 176.336 76.9093 176.684 75.6853 177.38C74.4613 178.052 73.5013 179 72.8053 180.224C72.1333 181.448 71.7973 182.84 71.7973 184.4C71.7973 185.96 72.1333 187.352 72.8053 188.576C73.5013 189.8 74.4613 190.76 75.6853 191.456C76.9093 192.128 78.3013 192.464 79.8613 192.464C82.3813 192.464 84.4933 191.468 86.1973 189.476L89.9413 192.932C88.7413 194.396 87.2533 195.512 85.4773 196.28C83.7013 197.048 81.7213 197.432 79.5373 197.432ZM148.396 197.432C145.78 197.432 143.416 196.868 141.304 195.74C139.216 194.612 137.572 193.064 136.372 191.096C135.196 189.104 134.608 186.872 134.608 184.4C134.608 181.928 135.196 179.708 136.372 177.74C137.572 175.748 139.216 174.188 141.304 173.06C143.416 171.932 145.78 171.368 148.396 171.368C151.012 171.368 153.364 171.932 155.452 173.06C157.54 174.188 159.184 175.748 160.384 177.74C161.584 179.708 162.184 181.928 162.184 184.4C162.184 186.872 161.584 189.104 160.384 191.096C159.184 193.064 157.54 194.612 155.452 195.74C153.364 196.868 151.012 197.432 148.396 197.432ZM148.396 192.464C149.884 192.464 151.228 192.128 152.428 191.456C153.628 190.76 154.564 189.8 155.236 188.576C155.932 187.352 156.28 185.96 156.28 184.4C156.28 182.84 155.932 181.448 155.236 180.224C154.564 179 153.628 178.052 152.428 177.38C151.228 176.684 149.884 176.336 148.396 176.336C146.908 176.336 145.564 176.684 144.364 177.38C143.164 178.052 142.216 179 141.52 180.224C140.848 181.448 140.512 182.84 140.512 184.4C140.512 185.96 140.848 187.352 141.52 188.576C142.216 189.8 143.164 190.76 144.364 191.456C145.564 192.128 146.908 192.464 148.396 192.464ZM232.519 171.8V197H227.731L215.167 181.7V197H209.407V171.8H214.231L226.759 187.1V171.8H232.519ZM289.601 197.432C287.609 197.432 285.677 197.168 283.805 196.64C281.957 196.088 280.469 195.38 279.341 194.516L281.321 190.124C282.401 190.916 283.685 191.552 285.173 192.032C286.661 192.512 288.149 192.752 289.637 192.752C291.293 192.752 292.517 192.512 293.309 192.032C294.101 191.528 294.497 190.868 294.497 190.052C294.497 189.452 294.257 188.96 293.777 188.576C293.321 188.168 292.721 187.844 291.977 187.604C291.257 187.364 290.273 187.1 289.025 186.812C287.105 186.356 285.533 185.9 284.309 185.444C283.085 184.988 282.029 184.256 281.141 183.248C280.277 182.24 279.845 180.896 279.845 179.216C279.845 177.752 280.241 176.432 281.033 175.256C281.825 174.056 283.013 173.108 284.597 172.412C286.205 171.716 288.161 171.368 290.465 171.368C292.073 171.368 293.645 171.56 295.181 171.944C296.717 172.328 298.061 172.88 299.213 173.6L297.413 178.028C295.085 176.708 292.757 176.048 290.429 176.048C288.797 176.048 287.585 176.312 286.793 176.84C286.025 177.368 285.641 178.064 285.641 178.928C285.641 179.792 286.085 180.44 286.973 180.872C287.885 181.28 289.265 181.688 291.113 182.096C293.033 182.552 294.605 183.008 295.829 183.464C297.053 183.92 298.097 184.64 298.961 185.624C299.849 186.608 300.293 187.94 300.293 189.62C300.293 191.06 299.885 192.38 299.069 193.58C298.277 194.756 297.077 195.692 295.469 196.388C293.861 197.084 291.905 197.432 289.601 197.432ZM358.314 197.432C354.714 197.432 351.906 196.436 349.89 194.444C347.898 192.452 346.902 189.608 346.902 185.912V171.8H352.734V185.696C352.734 190.208 354.606 192.464 358.35 192.464C360.174 192.464 361.566 191.924 362.526 190.844C363.486 189.74 363.966 188.024 363.966 185.696V171.8H369.726V185.912C369.726 189.608 368.718 192.452 366.702 194.444C364.71 196.436 361.914 197.432 358.314 197.432ZM418.33 171.8H424.162V192.248H436.798V197H418.33V171.8ZM485.761 176.552H477.697V171.8H499.657V176.552H491.593V197H485.761V176.552ZM557.487 197.432C554.871 197.432 552.507 196.868 550.395 195.74C548.307 194.612 546.663 193.064 545.463 191.096C544.287 189.104 543.699 186.872 543.699 184.4C543.699 181.928 544.287 179.708 545.463 177.74C546.663 175.748 548.307 174.188 550.395 173.06C552.507 171.932 554.871 171.368 557.487 171.368C560.103 171.368 562.455 171.932 564.543 173.06C566.631 174.188 568.275 175.748 569.475 177.74C570.675 179.708 571.275 181.928 571.275 184.4C571.275 186.872 570.675 189.104 569.475 191.096C568.275 193.064 566.631 194.612 564.543 195.74C562.455 196.868 560.103 197.432 557.487 197.432ZM557.487 192.464C558.975 192.464 560.319 192.128 561.519 191.456C562.719 190.76 563.655 189.8 564.327 188.576C565.023 187.352 565.371 185.96 565.371 184.4C565.371 182.84 565.023 181.448 564.327 180.224C563.655 179 562.719 178.052 561.519 177.38C560.319 176.684 558.975 176.336 557.487 176.336C555.999 176.336 554.655 176.684 553.455 177.38C552.255 178.052 551.307 179 550.611 180.224C549.939 181.448 549.603 182.84 549.603 184.4C549.603 185.96 549.939 187.352 550.611 188.576C551.307 189.8 552.255 190.76 553.455 191.456C554.655 192.128 555.999 192.464 557.487 192.464ZM634.554 197L629.694 189.98H629.406H624.33V197H618.498V171.8H629.406C631.638 171.8 633.57 172.172 635.202 172.916C636.858 173.66 638.13 174.716 639.018 176.084C639.906 177.452 640.35 179.072 640.35 180.944C640.35 182.816 639.894 184.436 638.982 185.804C638.094 187.148 636.822 188.18 635.166 188.9L640.818 197H634.554ZM634.446 180.944C634.446 179.528 633.99 178.448 633.078 177.704C632.166 176.936 630.834 176.552 629.082 176.552H624.33V185.336H629.082C630.834 185.336 632.166 184.952 633.078 184.184C633.99 183.416 634.446 182.336 634.446 180.944ZM687.811 171.8H693.643V197H687.811V171.8ZM759.059 191.6H747.359L745.127 197H739.151L750.383 171.8H756.143L767.411 197H761.291L759.059 191.6ZM757.223 187.172L753.227 177.524L749.231 187.172H757.223Z" fill="white"/>
</svg>
