<svg width="595" height="160" viewBox="0 0 595 160" fill="none" xmlns="http://www.w3.org/2000/svg">
<path d="M120.856 134.629H132.187C134.895 134.629 137.283 135.152 139.349 136.197C141.44 137.219 143.055 138.668 144.195 140.544C145.359 142.421 145.941 144.607 145.941 147.101C145.941 149.595 145.359 151.781 144.195 153.657C143.055 155.534 141.44 156.995 139.349 158.04C137.283 159.062 134.895 159.572 132.187 159.572H120.856V134.629ZM131.902 154.833C134.396 154.833 136.38 154.144 137.853 152.766C139.349 151.365 140.098 149.476 140.098 147.101C140.098 144.725 139.349 142.849 137.853 141.471C136.38 140.069 134.396 139.369 131.902 139.369H126.628V154.833H131.902Z" fill="white"/>
<path d="M204.777 160C202.188 160 199.848 159.442 197.757 158.325C195.691 157.209 194.063 155.676 192.876 153.729C191.712 151.757 191.13 149.548 191.13 147.101C191.13 144.654 191.712 142.457 192.876 140.509C194.063 138.537 195.691 136.993 197.757 135.877C199.848 134.76 202.188 134.202 204.777 134.202C207.366 134.202 209.694 134.76 211.761 135.877C213.828 136.993 215.455 138.537 216.643 140.509C217.83 142.457 218.424 144.654 218.424 147.101C218.424 149.548 217.83 151.757 216.643 153.729C215.455 155.676 213.828 157.209 211.761 158.325C209.694 159.442 207.366 160 204.777 160ZM204.777 155.083C206.25 155.083 207.58 154.75 208.768 154.085C209.956 153.396 210.882 152.446 211.547 151.234C212.236 150.023 212.581 148.645 212.581 147.101C212.581 145.557 212.236 144.179 211.547 142.967C210.882 141.756 209.956 140.818 208.768 140.152C207.58 139.464 206.25 139.119 204.777 139.119C203.304 139.119 201.974 139.464 200.786 140.152C199.598 140.818 198.66 141.756 197.971 142.967C197.306 144.179 196.973 145.557 196.973 147.101C196.973 148.645 197.306 150.023 197.971 151.234C198.66 152.446 199.598 153.396 200.786 154.085C201.974 154.75 203.304 155.083 204.777 155.083Z" fill="white"/>
<path d="M288.042 134.629V159.572H283.303L270.867 144.428V159.572H265.166V134.629H269.94L282.34 149.773V134.629H288.042Z" fill="white"/>
<path d="M336.346 134.629H342.118V159.572H336.346V134.629Z" fill="white"/>
<path d="M410.645 154.869V159.572H388.837V155.831L402.52 139.333H389.122V134.629H410.11V138.371L396.463 154.869H410.645Z" fill="white"/>
<path d="M476.063 154.94V159.572H456.75V134.629H475.599V139.262H462.487V144.678H474.067V149.168H462.487V154.94H476.063Z" fill="white"/>
<path d="M528.225 139.333H520.243V134.629H541.979V139.333H533.998V159.572H528.225V139.333Z" fill="white"/>
<path d="M587.488 134.629H593.261V159.572H587.488V134.629Z" fill="white"/>
<path fill-rule="evenodd" clip-rule="evenodd" d="M445.982 109.609L383.594 1.54938L321.206 109.609H342.762L384.369 37.1821L425.976 109.609H445.982Z" fill="white"/>
<path d="M384.368 63.519L411.48 109.996H357.256L384.368 63.519Z" fill="#1AADCD"/>
<path d="M57.9418 111.546C46.9938 111.546 37.0786 109.17 28.1963 104.419C19.4172 99.5649 12.4973 92.9032 7.43638 84.434C2.47879 75.9647 0 66.411 0 55.7729C0 45.1347 2.53044 35.581 7.59131 27.1118C12.6522 18.6426 19.5722 12.0325 28.3512 7.28146C37.2336 2.42715 47.1487 0 58.0968 0C66.9791 0 75.0868 1.54925 82.4199 4.64775C89.753 7.74624 95.95 12.239 101.011 18.1262L87.9972 30.3652C80.1477 21.896 70.4907 17.6614 59.0263 17.6614C51.5899 17.6614 44.9282 19.3139 39.041 22.619C33.1539 25.8208 28.5578 30.3136 25.2527 36.0975C21.9477 41.8813 20.2951 48.4398 20.2951 55.7729C20.2951 63.106 21.9477 69.6645 25.2527 75.4483C28.5578 81.2322 33.1539 85.7766 39.041 89.0817C44.9282 92.2835 51.5899 93.8844 59.0263 93.8844C70.4907 93.8844 80.1477 89.5981 87.9972 81.0256L101.011 93.4196C95.95 99.3067 89.7014 103.8 82.265 106.898C74.9319 109.997 66.8242 111.546 57.9418 111.546Z" fill="white"/>
<path d="M201.644 93.1097V109.997H120.309V1.54925H199.475V18.436H140.449V46.6323H192.813V63.2093H140.449V93.1097H201.644Z" fill="white"/>
<path d="M308.375 92.9548V109.997H215.885V96.5181L279.714 18.591H216.97V1.54925H306.361V15.0277L242.532 92.9548H308.375Z" fill="white"/>
<path d="M532.012 109.997L509.857 78.2371C508.928 78.3404 507.534 78.392 505.674 78.392H481.196V109.997H461.056V1.54938H505.674C515.073 1.54938 523.233 3.09863 530.153 6.19712C537.176 9.29561 542.547 13.7368 546.265 19.5206C549.983 25.3045 551.842 32.1728 551.842 40.1256C551.842 48.285 549.828 55.3082 545.8 61.1954C541.875 67.0825 536.195 71.4721 528.758 74.364L553.701 109.997H532.012ZM531.547 40.1256C531.547 33.2057 529.275 27.8866 524.73 24.1684C520.186 20.4502 513.524 18.5911 504.745 18.5911H481.196V61.8151H504.745C513.524 61.8151 520.186 59.956 524.73 56.2378C529.275 52.4163 531.547 47.0456 531.547 40.1256Z" fill="white"/>
<path d="M574.375 1.54938H594.515V109.997H574.375V1.54938Z" fill="white"/>
</svg>
