<svg width="289" height="289" viewBox="0 0 289 289" fill="none" xmlns="http://www.w3.org/2000/svg">
<path d="M283.375 207.562L214.188 138.375L242.312 110.25L280.562 72C291.25 61.3125 291.25 44.4375 280.562 33.75L255.25 8.4375C250.188 2.8125 243.438 0 236.125 0C229.375 0 222.625 2.8125 217 8.4375L178.75 46.6875L150.625 74.8125L81.4375 5.625C78.0625 2.25 73.5625 0 69.0625 0C64.5625 0 60.0625 2.25 56.6875 5.625L6.0625 55.6875C-1.25 63 -1.25 74.25 6.0625 81L75.25 150.188L11.6875 213.75L1 274.5C-0.6875 282.938 7.1875 289.688 14.5 288L75.25 277.312L138.812 213.75L208 282.938C210.812 285.75 216.438 288 220.375 288C224.875 288 229.375 286.312 232.75 282.938L283.375 232.312C290.688 225.562 290.688 214.312 283.375 207.562ZM229.938 20.8125C232.188 18.5625 240.062 18.5625 242.875 20.8125L268.188 46.125C271.562 50.0625 271.562 55.6875 268.188 59.0625L242.312 84.9375L204.062 46.6875L229.938 20.8125ZM18.4375 68.625L69.0625 18.5625L100.562 49.5L78.625 72C76.9375 73.6875 76.9375 76.5 78.625 78.1875L84.8125 84.375C86.5 86.0625 89.3125 86.0625 91 84.375L113.5 62.4375L138.25 87.1875L87.625 137.812L18.4375 68.625ZM66.25 261L20.125 268.875L28 222.75L191.125 59.625L229.375 97.875L66.25 261ZM220.375 270.562L151.188 201.375L201.812 150.75L226.562 175.5L204.625 198C202.938 199.688 202.938 202.5 204.625 204.188L210.812 210.375C212.5 212.062 215.312 212.062 217 210.375L239.5 188.438L271 219.938L220.375 270.562Z" fill="#103673"/>
</svg>
