<svg width="290" height="315" viewBox="0 0 290 315" fill="none" xmlns="http://www.w3.org/2000/svg">
<path d="M120.005 224.013L120.028 224.023C123.148 220.827 126.245 218.651 129.112 217.16L110.713 211.389C111.285 213.867 111.628 216.725 111.594 220.015L111.606 220.019C111.58 221.581 110.833 224.424 109.516 228.26L117.382 227.752C118.405 226.047 119.289 224.773 120.005 224.013" fill="#F3611E"/>
<path d="M90.3251 288.241C95.4219 275.655 100.419 263.684 104.891 253.516L97.3735 257.737C93.1626 267.165 88.2965 277.652 83.1699 288.448L83.3022 289.251L90.3251 288.241" fill="#F25C21"/>
<path d="M83.1694 288.448C83.0422 288.716 82.9157 288.983 82.7881 289.251H83.3017L83.1694 288.448Z" fill="#F25C21"/>
<path d="M117.381 227.752L109.515 228.26C107.109 235.268 102.784 245.623 97.373 257.737L104.89 253.516C109.931 242.055 114.299 232.896 117.381 227.752" fill="#F68716"/>
<path d="M89.2756 290.839C89.6262 289.971 89.9752 289.104 90.3247 288.241L83.3018 289.251L89.2756 290.839" fill="#F68716"/>
<path d="M82.7884 289.251C82.6911 289.456 82.5925 289.663 82.4941 289.868C82.9884 289.49 83.302 289.251 83.302 289.251H82.7884Z" fill="#F25C20"/>
<path d="M141.479 214.189C142.493 214.268 143.254 213.873 143.598 212.873C144.303 210.833 145.778 206.475 147.694 200.797L143.555 187.119L140.554 193.441C140.554 193.441 140.087 194.457 139.077 194.04C138.074 193.619 138.485 192.599 138.485 192.599L139.733 189.024L109.685 207.916C110.074 208.979 110.423 210.133 110.713 211.389L129.111 217.16C134.582 214.316 139.207 214.011 141.479 214.189" fill="#F68E15"/>
<path d="M83.3017 289.251C83.3017 289.251 82.9881 289.49 82.4939 289.868C81.0116 292.984 79.51 296.121 77.9971 299.265C80.2179 300.259 82.4799 301.192 84.7804 302.069C84.8069 302.002 84.834 301.935 84.8611 301.867L83.3017 289.251" fill="#F47216"/>
<path d="M84.8611 301.867C86.3319 298.165 87.8064 294.481 89.2756 290.839L83.3018 289.251L84.8611 301.867" fill="#F79712"/>
<path d="M163.083 154.988L159.054 154.473L143.893 186.407L154.853 179.515C157.617 171.287 160.502 162.685 163.083 154.988Z" fill="#43ACCF"/>
<path d="M141.405 152.22L136.906 151.645L134.393 156.865L136.883 165.089L141.405 152.22" fill="#43ACCF"/>
<path d="M152.098 153.585L147.927 153.052L138.93 171.845L142.087 182.273L152.098 153.585Z" fill="#43ACCF"/>
<path d="M151.95 188.153L143.73 186.751L143.556 187.119L147.694 200.797C148.952 197.067 150.4 192.764 151.95 188.153Z" fill="#378FA7"/>
<path d="M154.852 179.515L143.892 186.407L143.729 186.751L151.949 188.153C152.887 185.364 153.86 182.467 154.852 179.515Z" fill="#49BDD6"/>
<path d="M142.087 182.273L138.93 171.845L130.574 189.297C130.574 189.297 130.114 190.331 129.194 189.951C128.271 189.572 128.657 188.505 128.657 188.505L136.883 165.089L134.393 156.865L120.725 185.255C120.725 185.255 120.263 186.255 119.291 185.852C118.31 185.445 118.671 184.391 118.671 184.391L130.582 150.837L128.673 150.595L123.081 154.973C114.273 172.725 105.15 191.136 102.794 195.989C102.381 196.839 102.558 197.564 103.135 198.184L140.225 187.613L142.087 182.273" fill="#49BDD6"/>
<path d="M140.225 187.613L103.135 198.184C103.208 198.263 103.264 198.348 103.351 198.423C104.991 199.817 107.806 202.783 109.685 207.916L139.733 189.024L140.225 187.613" fill="#40AEB5"/>
<path d="M140.534 119.829C138.752 123.416 134.892 131.183 130.262 140.507L133.155 138.969L140.534 119.829Z" fill="#3C9DB3"/>
<path d="M132.199 141.449L130.025 140.985C129.934 141.168 129.842 141.352 129.75 141.537L130.813 145.044L132.199 141.449" fill="#3C9DB3"/>
<path d="M132.518 140.62L130.099 140.836C130.074 140.885 130.048 140.935 130.024 140.985L132.199 141.449L132.518 140.62" fill="#3C9DB3"/>
<path d="M133.156 138.969L130.262 140.507C130.209 140.615 130.153 140.727 130.1 140.836L132.518 140.62L133.156 138.969Z" fill="#3C9DB3"/>
<path d="M130.812 145.044L129.749 141.537C127.629 145.809 125.368 150.364 123.08 154.973L128.672 150.595L130.812 145.044Z" fill="#3C9DB3"/>
<path d="M152.015 122.016L151.721 121.756L151.313 121.723L151.141 122.079L151.695 122.925L152.015 122.016" fill="#EC1741"/>
<path d="M168.984 137.377L167.09 137.547L164.642 142.703L166.334 145.288C167.335 142.3 168.231 139.625 168.984 137.377" fill="#EC1741"/>
<path d="M171.451 130.015L171.162 129.768L170.791 129.749L167.09 137.547L168.985 137.377C170.51 132.824 171.451 130.015 171.451 130.015Z" fill="#EC1741"/>
<path d="M161.715 126.028L161.419 125.739L161.008 125.732L157.85 132.328L158.936 133.988L161.715 126.028Z" fill="#EC1741"/>
<path d="M151.695 122.925L151.141 122.079L146.399 131.928L149.023 130.533L151.695 122.925" fill="#42B1B7"/>
<path d="M135.177 137.895L142.257 117.947L141.97 117.701L141.605 117.673C141.605 117.673 141.211 118.467 140.534 119.829L133.155 138.969L135.177 137.895" fill="#42B1B7"/>
<path d="M154.661 146.241L151.511 145.569L147.927 153.052L152.097 153.585L154.661 146.241" fill="#42B1B7"/>
<path d="M130.812 145.044L131.654 147.82L133.794 141.788L132.199 141.449L130.812 145.044" fill="#42B1B7"/>
<path d="M144.282 144.027L140.92 143.309L136.906 151.645L141.405 152.22L144.282 144.027" fill="#42B1B7"/>
<path d="M165.256 148.501L162.198 147.848L159.054 154.473L163.083 154.988C163.838 152.733 164.566 150.564 165.256 148.501" fill="#42B1B7"/>
<path d="M166.334 145.288L164.642 142.703L162.198 147.848L165.257 148.501C165.628 147.396 165.988 146.324 166.334 145.288Z" fill="#42B1B7"/>
<path d="M145.896 139.431L142.647 139.72L140.919 143.309L144.282 144.027L145.896 139.431" fill="#42B1B7"/>
<path d="M132.199 141.449L133.794 141.788L134.263 140.465L132.518 140.62L132.199 141.449Z" fill="#42B1B7"/>
<path d="M157.395 138.408L154.829 138.636L151.511 145.569L154.661 146.241L157.395 138.408Z" fill="#42B1B7"/>
<path d="M149.023 130.533L146.399 131.928L142.647 139.72L145.897 139.431L149.023 130.533" fill="#42B1B7"/>
<path d="M132.518 140.62L134.263 140.465L135.176 137.895L133.155 138.969L132.518 140.62" fill="#42B1B7"/>
<path d="M158.937 133.988L157.85 132.328L154.83 138.636L157.395 138.408L158.937 133.988" fill="#42B1B7"/>
<path d="M128.673 150.595L130.582 150.837L131.654 147.82L130.813 145.044L128.673 150.595Z" fill="#42B1B7"/>
<path d="M232.666 174.344L228.582 174.963L210.512 187.348C210.318 187.799 210.143 188.251 209.946 188.701C207.178 195.013 204.072 201.011 200.696 206.667L217.294 269.985L232.666 174.344" fill="#70D0EB"/>
<path d="M200.696 206.667C193.101 219.389 184.104 230.335 174.368 239.149L217.293 269.985L200.696 206.667Z" fill="#40AEB5"/>
<path d="M174.368 239.149C164.95 247.677 154.844 254.218 144.618 258.324C144.02 259.929 143.54 261.265 143.16 262.301C142.468 264.172 141.023 264.885 139.115 264.694C132.592 264.044 124.875 268.361 107.366 285.524C107.275 285.609 107.17 285.739 107.076 285.832L217.293 269.985L174.368 239.149" fill="#F25C21"/>
<path d="M59.8023 289.251H69.6752C72.7371 280.653 74.484 274.349 74.507 271.118C74.5127 270.927 74.5147 270.757 74.5199 270.569L51.7236 283.372C54.3408 285.443 57.0314 287.406 59.8023 289.251" fill="#F25C21"/>
<path d="M51.7236 283.372L74.5199 270.569C75.1247 249.957 73.3465 240.613 69.7788 235.629L40.6865 273.515C44.2007 277.04 47.8772 280.331 51.7236 283.372Z" fill="#F68E15"/>
<path d="M255.927 231.499L250.035 171.713L233.927 174.153L255.927 231.499Z" fill="#378DAD"/>
<path d="M217.294 269.985L275.037 281.333L272.226 274.006L256.887 259.476C259.205 256.792 261.365 253.967 263.425 251.049L255.927 231.499L217.294 269.985Z" fill="#49BDD6"/>
<path d="M233.927 174.153L232.666 174.344L217.294 269.985L255.927 231.499L233.927 174.153" fill="#3EABB0"/>
<path d="M4.82227 204.421C7.10253 214.807 10.1931 224.528 14.1025 233.582L66.4588 230.939C66.3921 230.282 66.4864 229.59 66.8697 228.849C66.9775 228.637 67.1217 228.356 67.2436 228.116L4.92747 204.241L4.82227 204.421" fill="#EF2F33"/>
<path d="M217.294 269.985L107.077 285.832C105.557 287.361 103.62 290.161 101.334 294.043L164.91 310.937L217.294 269.985" fill="#F68716"/>
<path d="M67.8735 294.189C68.523 292.457 69.1142 290.829 69.6757 289.251H59.8027C62.4246 290.996 65.1142 292.644 67.8735 294.189" fill="#F25C20"/>
<path d="M37.9307 270.682C38.8348 271.647 39.7588 272.583 40.6868 273.515L69.7791 235.629C69.1796 234.792 68.5359 234.064 67.8373 233.44C67.0035 232.699 66.552 231.855 66.4588 230.939L14.1025 233.582C20.1223 247.52 28.0457 259.901 37.9307 270.682Z" fill="#F8AC0C"/>
<path d="M214.499 177.095C213.302 180.515 211.973 183.935 210.513 187.348L228.582 174.963L214.499 177.095" fill="#43ACCF"/>
<path d="M217.294 269.985L164.91 310.937H164.911C172.829 310.08 180.506 308.741 187.925 306.887C200.56 304.597 212.062 299.708 222.407 292.232L239.646 307.748C243.662 311.197 248.833 313.352 255.163 314.214C256.343 314.376 257.509 314.383 258.667 314.312L217.294 269.985" fill="#FBBD0D"/>
<path d="M271.187 238.418C275.173 230.844 278.457 222.635 281.025 213.785C281.993 210.559 282.84 207.251 283.627 203.901L255.927 231.499L271.187 238.418Z" fill="#39778A"/>
<path d="M255.886 170.827L250.035 171.713L255.927 231.499L283.627 203.901C284.22 201.383 284.763 198.829 285.252 196.241L263.138 177.108L255.886 170.827" fill="#43ACCF"/>
<path d="M217.294 269.985L258.667 314.312C263.721 314.008 268.589 311.553 273.266 306.887L281.633 298.52L275.037 281.333L217.294 269.985Z" fill="#F79410"/>
<path d="M281.632 298.52L289.645 290.507L281.251 282.555L275.036 281.333L281.632 298.52" fill="#70D0EB"/>
<path d="M281.251 282.555L272.226 274.006L275.036 281.333L281.251 282.555Z" fill="#42B1B7"/>
<path d="M263.424 251.049C266.245 247.051 268.851 242.855 271.187 238.418L255.927 231.499L263.424 251.049" fill="#42B1B7"/>
<path d="M101.334 294.043C99.4722 297.202 97.3936 301.039 95.1045 305.541C109.9 309.88 126.182 312.059 143.96 312.059C151.131 312.059 158.108 311.673 164.91 310.937L101.334 294.043Z" fill="#F79712"/>
<path d="M4.77148 204.181C4.78868 204.261 4.80482 204.343 4.82255 204.421L4.92775 204.241L4.77148 204.181Z" fill="#ED1938"/>
<path d="M17.7224 182.361L17.6407 182.347L2.64746 192.815C3.24893 196.691 3.96253 200.475 4.77133 204.181L4.92759 204.241L17.7224 182.361" fill="#D81841"/>
<path d="M17.7225 182.361L4.92773 204.241L67.2439 228.116C67.5627 227.489 67.9304 226.776 68.346 225.977L17.9949 182.412L17.7225 182.361" fill="#ED1A36"/>
<path d="M17.9951 182.412L68.3462 225.977C68.5415 225.601 68.7148 225.261 68.9315 224.851C65.7388 216.312 63.8285 206.72 63.2087 196.485L18.8602 182.573L17.9951 182.412" fill="#EE4628"/>
<path d="M11.9327 181.284L1.00781 179.248C1.42448 183.876 1.96248 188.405 2.64741 192.815L17.6406 182.347L11.9327 181.284" fill="#E9183A"/>
<path d="M63.2089 196.485C63.0948 194.608 63.0245 192.711 62.9999 190.791L18.8604 182.573L63.2089 196.485" fill="#EC1741"/>
<path d="M18.5142 70.4906C8.38659 90.1199 2.40006 113.04 0.591797 139.284L31.0735 118.396L18.5142 70.4906" fill="#70D0EB"/>
<path d="M73.8621 89.0707L27.3881 55.692C24.147 60.3987 21.1782 65.324 18.5137 70.4907L31.073 118.396L73.8621 89.0707" fill="#40AEB5"/>
<path d="M96.192 96.0774C98.6596 92.9387 101.214 89.9561 103.845 87.1374L73.8623 89.0707L96.192 96.0774" fill="#F3611E"/>
<path d="M149.217 46.756L145.669 25.136L39.8324 40.356C39.2017 40.9893 38.5533 41.592 37.9309 42.24C34.1168 46.4867 30.6272 50.9893 27.3887 55.692L73.8627 89.0707L149.217 46.756Z" fill="#F25C21"/>
<path d="M149.217 46.756L187.714 25.136H145.669L149.217 46.756Z" fill="#F25C21"/>
<path d="M73.8623 89.0707L103.845 87.1373C118.146 71.8107 134.627 61.3494 150.939 57.2467L149.216 46.756L73.8623 89.0707" fill="#F68716"/>
<path d="M187.714 25.136L149.217 46.756L150.939 57.2467C159.605 55.0667 168.218 54.6707 176.427 56.3107L194.865 32.2974L187.714 25.136Z" fill="#F68E15"/>
<path d="M242.011 79.4346L210.759 81.0146C215.72 89.0266 219.229 98.532 221.172 109.049L224.043 110.149L242.011 79.4346Z" fill="#EF2F33"/>
<path d="M87.2648 9.61598C69.3623 16.3333 53.5519 26.58 39.832 40.356L145.668 25.136L87.2648 9.61598" fill="#F68716"/>
<path d="M187.714 25.136L190.058 6.216C185.22 4.812 180.256 3.63466 175.153 2.70666C158.806 15.0907 145.669 25.136 145.669 25.136H187.714" fill="#F25C20"/>
<path d="M194.864 32.2973L176.427 56.3106C179.948 57.0133 183.397 58.0773 186.743 59.5426C196.757 63.9346 204.803 71.3986 210.759 81.0146L242.011 79.4346L194.864 32.2973Z" fill="#F8AC0C"/>
<path d="M37.7526 143.871L31.0739 118.396L0.592206 139.284C0.589006 139.321 0.588471 139.359 0.585938 139.396L27.1802 135.375L37.7526 143.871" fill="#43ACCF"/>
<path d="M27.1797 135.375L0.585417 139.396C0.48595 140.847 0.434352 142.337 0.360352 143.809L24.0865 150.821L27.1797 135.375Z" fill="#43ACCF"/>
<path d="M24.0869 150.821L40.8755 155.783L37.7525 143.871L27.1801 135.375L24.0869 150.821" fill="#43ACCF"/>
<path d="M24.0865 150.821L0.3604 143.809C0.1448 148.095 0 152.436 0 156.892C0 159.281 0.0551994 161.625 0.117733 163.964L21.7245 162.613L24.0865 150.821" fill="#42B1B7"/>
<path d="M40.8751 155.783L24.0866 150.821L21.7246 162.613L42.3313 161.325L40.8751 155.783Z" fill="#42B1B7"/>
<path d="M18.902 176.708L21.725 162.613L0.118164 163.964C0.144697 164.987 0.171232 166.009 0.210299 167.023L14.6384 179.507L18.902 176.708Z" fill="#358BA3"/>
<path d="M21.7243 162.613L18.9014 176.708L42.331 161.325L21.7243 162.613Z" fill="#358BA3"/>
<path d="M14.6381 179.507L0.209961 167.023C0.338628 170.373 0.544359 173.661 0.802226 176.907L12.8438 180.685L14.6381 179.507Z" fill="#358BA3"/>
<path d="M12.8434 180.685L0.801758 176.907C0.864691 177.692 0.937624 178.468 1.00749 179.248L11.9324 181.284L12.8434 180.685Z" fill="#358BA3"/>
<path d="M82.3462 117.109C86.5107 109.508 91.1643 102.472 96.192 96.0774L73.8623 89.0707L82.3462 117.109" fill="#F68E15"/>
<path d="M175.152 2.70666C165.249 0.906658 154.855 -1.47778e-05 143.96 -1.47778e-05C143.491 -1.47778e-05 143.035 0.0253133 142.565 0.02798L145.668 25.136C145.668 25.136 158.805 15.0907 175.152 2.70666" fill="#F47216"/>
<path d="M194.865 32.2974L209.382 13.3947C203.195 10.54 196.747 8.15872 190.058 6.21605L187.714 25.136L194.865 32.2974" fill="#F79813"/>
<path d="M142.565 0.02798C122.324 0.169313 103.895 3.37733 87.2646 9.616L145.668 25.136L142.565 0.02798Z" fill="#F79712"/>
<path d="M263.462 125.247L270.631 114.245L279.216 128.855L286.516 124.109C284.563 110.575 281.339 97.9734 276.839 86.3067L236.087 114.76L263.462 125.247" fill="#8C1530"/>
<path d="M281.054 131.985L279.217 128.855L276.866 130.381L281.054 131.985Z" fill="#8C1530"/>
<path d="M281.054 131.985L287.734 134.544C287.403 131.011 287.009 127.524 286.517 124.109L279.217 128.855L281.054 131.985Z" fill="#8C1530"/>
<path d="M279.217 128.855L270.631 114.245L263.462 125.247L276.866 130.381L279.217 128.855" fill="#8C1530"/>
<path d="M224.043 110.149L236.087 114.76L276.839 86.3067C272.843 75.9453 267.826 66.332 261.822 57.44L242.011 79.4347L224.043 110.149" fill="#ED1938"/>
<path d="M242.011 79.4347L235.746 29.5427C227.528 23.1267 218.754 17.7187 209.382 13.3947L194.864 32.2974L242.011 79.4347" fill="#F79113"/>
<path d="M261.821 57.44C260.219 55.068 258.541 52.752 256.796 50.484L242.011 79.4347L261.821 57.44Z" fill="#EF3144"/>
<path d="M256.797 50.484C254.626 47.664 252.383 44.8987 249.991 42.24C245.459 37.6147 240.697 33.4094 235.746 29.5427L242.011 79.4347L256.797 50.484Z" fill="#F47116"/>
<path d="M228.582 174.963L232.666 174.344L233.061 171.893L228.582 174.963Z" fill="#EE2C50"/>
<path d="M250.035 171.713L249.631 167.617L233.061 171.893L233.927 174.153L250.035 171.713Z" fill="#EE2C50"/>
<path d="M249.394 165.211L241.734 158.584L233.061 171.893L249.631 167.617L249.394 165.211Z" fill="#EE2C50"/>
<path d="M233.061 171.893L232.666 174.344L233.927 174.153L233.061 171.893Z" fill="#EE2C50"/>
<path d="M233.06 171.893L217.582 167.319C216.674 170.571 215.643 173.832 214.499 177.095L228.582 174.963L233.06 171.893Z" fill="#EE2C50"/>
<path d="M241.734 158.584L232.075 150.227L221.191 150.907C220.315 156.319 219.122 161.803 217.582 167.319L233.061 171.893L241.734 158.584" fill="#EE2C50"/>
<path d="M222.37 141.831C222.083 144.827 221.685 147.856 221.191 150.907L232.075 150.227L222.37 141.831Z" fill="#EE2C50"/>
<path d="M249.631 167.617L250.035 171.713L255.886 170.827L251.591 167.112L249.631 167.617" fill="#EE2C50"/>
<path d="M251.216 166.787L249.631 167.617L251.591 167.112L251.216 166.787Z" fill="#EE2C50"/>
<path d="M249.394 165.211L249.631 167.617L251.216 166.787L249.394 165.211Z" fill="#EE2C50"/>
<path d="M224.044 110.149L221.936 113.756C222.393 117.087 222.692 120.509 222.848 124.001L236.088 114.76L224.044 110.149Z" fill="#D81841"/>
<path d="M221.173 109.049C221.46 110.599 221.717 112.165 221.936 113.756L224.044 110.149L221.173 109.049Z" fill="#ED1A36"/>
<path d="M253.638 145.468L250.853 144.595L247.822 149.243H247.832L253.638 145.468" fill="#ED1646"/>
<path d="M262.706 148.313L253.638 145.468L247.831 149.243L262.706 148.313Z" fill="#ED1646"/>
<path d="M247.821 149.243L241.733 158.584L249.393 165.211L247.821 149.243Z" fill="#ED1646"/>
<path d="M232.075 150.227L241.734 158.584L247.822 149.243L232.075 150.227Z" fill="#ED1646"/>
<path d="M247.822 149.243L250.853 144.595L222.801 135.793C222.701 137.791 222.563 139.801 222.37 141.831L232.075 150.227L247.822 149.243Z" fill="#ED1646"/>
<path d="M255.885 170.827L263.137 177.108L284.053 158.735L251.591 167.112L255.885 170.827" fill="#ED1646"/>
<path d="M251.591 167.112L284.054 158.735L287.178 155.991L277.554 152.972L251.217 166.787L251.591 167.112" fill="#ED1646"/>
<path d="M251.217 166.787L277.554 152.972L262.706 148.313L247.832 149.243H247.822L249.394 165.211L251.217 166.787Z" fill="#ED1646"/>
<path d="M263.138 177.108L285.252 196.241C287.551 184.084 288.738 171.184 288.774 157.516L284.054 158.735L263.138 177.108Z" fill="#D81841"/>
<path d="M284.054 158.735L288.774 157.516C288.774 157.305 288.783 157.103 288.783 156.892C288.783 156.757 288.776 156.627 288.776 156.492L287.178 155.991L284.054 158.735" fill="#D81841"/>
<path d="M288.776 156.492C288.775 155.859 288.75 155.243 288.743 154.612L287.178 155.991L288.776 156.492Z" fill="#D81841"/>
<path d="M263.462 125.247L236.088 114.76L222.848 124.001C222.997 127.336 223.002 130.737 222.873 134.191L253.869 139.968L263.462 125.247" fill="#E9183A"/>
<path d="M260.269 141.157L253.869 139.968L250.853 144.595L253.638 145.468L260.269 141.157Z" fill="#E9183A"/>
<path d="M253.638 145.468L262.706 148.313L288.559 146.696C288.556 146.604 288.548 146.515 288.546 146.424L260.268 141.157L253.638 145.468" fill="#E9183A"/>
<path d="M276.866 130.381L260.269 141.157L288.546 146.424C288.519 145.805 288.478 145.2 288.449 144.587L281.054 131.985L276.866 130.381Z" fill="#E9183A"/>
<path d="M253.869 139.968L222.873 134.191C222.853 134.724 222.827 135.259 222.801 135.793L250.853 144.595L253.869 139.968Z" fill="#E9183A"/>
<path d="M288.448 144.587C288.28 141.188 288.042 137.84 287.734 134.544L281.054 131.985L288.448 144.587Z" fill="#E9183A"/>
<path d="M276.865 130.381L263.461 125.247L253.868 139.968L260.268 141.157L276.865 130.381" fill="#E9183A"/>
<path d="M287.178 155.991L288.743 154.612C288.722 152.113 288.679 149.631 288.586 147.184L277.554 152.972L287.178 155.991" fill="#E9183A"/>
<path d="M277.554 152.972L288.586 147.184C288.579 147.02 288.566 146.86 288.559 146.696L262.706 148.313L277.554 152.972Z" fill="#E9183A"/>
<path d="M55.4129 158.061L66.3556 159.459C68.1452 151.371 70.6515 143.175 73.9181 135L47.4395 151.655L55.4129 158.061" fill="#43ACCF"/>
<path d="M42.3311 161.325L48.3406 162.607L55.4125 158.061L47.439 151.655L40.875 155.783L42.3311 161.325Z" fill="#43ACCF"/>
<path d="M60.019 165.099L55.4127 158.061L48.3408 162.607L60.019 165.099Z" fill="#43ACCF"/>
<path d="M60.0184 165.099L65.0288 166.167C65.4141 163.941 65.858 161.705 66.3548 159.459L55.4121 158.061L60.0184 165.099Z" fill="#43ACCF"/>
<path d="M18.095 180.736L18.9013 176.708L14.6377 179.507L16.2466 180.9L18.095 180.736" fill="#49BDD6"/>
<path d="M18.902 176.708L18.0957 180.736L20.4613 180.525L48.341 162.607L42.3316 161.325L18.902 176.708" fill="#49BDD6"/>
<path d="M16.2469 180.9L14.638 179.507L12.8438 180.685L14.1281 181.088L16.2469 180.9" fill="#49BDD6"/>
<path d="M12.8436 180.685L11.9326 181.284L14.1279 181.088L12.8436 180.685Z" fill="#49BDD6"/>
<path d="M48.3407 162.607L20.4609 180.525L63.6084 176.688C63.7745 174.968 63.9771 173.24 64.2109 171.501L60.0188 165.099L48.3407 162.607" fill="#49BDD6"/>
<path d="M64.2107 171.501C64.4487 169.731 64.7191 167.953 65.029 166.167L60.0186 165.099L64.2107 171.501Z" fill="#49BDD6"/>
<path d="M16.2471 180.9L17.7944 182.239L18.0955 180.736L16.2471 180.9Z" fill="#60CBEF"/>
<path d="M17.7939 182.239L20.4606 180.525L18.095 180.736L17.7939 182.239Z" fill="#60CBEF"/>
<path d="M17.7224 182.361L17.7942 182.239L17.6406 182.347L17.7224 182.361Z" fill="#60CBEF"/>
<path d="M17.9951 182.412L17.7945 182.239L17.7227 182.361L17.9951 182.412Z" fill="#60CBEF"/>
<path d="M14.1279 181.088L17.7941 182.239L16.2467 180.9L14.1279 181.088Z" fill="#60CBEF"/>
<path d="M18.8595 182.573L17.7939 182.239L17.9945 182.412L18.8595 182.573Z" fill="#60CBEF"/>
<path d="M11.9326 181.284L17.6405 182.347L17.7941 182.239L14.1279 181.088L11.9326 181.284" fill="#60CBEF"/>
<path d="M17.7939 182.239L18.8595 182.573L62.9991 190.791C62.9409 186.191 63.145 181.481 63.6081 176.688L20.4606 180.525L17.7939 182.239Z" fill="#60CBEF"/>
<path d="M31.0732 118.396L77.6628 126.343C79.1424 123.18 80.7066 120.103 82.3462 117.109L73.8623 89.0706L31.0732 118.396Z" fill="#378FA7"/>
<path d="M37.7519 143.871L47.4388 151.655L73.9175 135C74.5878 133.323 75.2643 131.644 75.9987 129.969C76.5363 128.744 77.1008 127.544 77.6628 126.343L31.0732 118.396L37.7519 143.871" fill="#49BDD6"/>
<path d="M47.4389 151.655L37.752 143.871L40.8749 155.783L47.4389 151.655Z" fill="#49BDD6"/>
</svg>
