<svg width="289" height="289" viewBox="0 0 289 289" fill="none" xmlns="http://www.w3.org/2000/svg">
<path d="M280.562 55.125L233.875 8.4375C228.812 3.375 221.5 0 214.75 0H100C84.8125 0.5625 73 12.375 73 27.5625V93.375C69.625 93.375 66.25 92.8125 58.9375 90.5625C58.375 90.5625 57.25 90.5625 56.125 90.5625C53.3125 90.5625 50.5 91.6875 48.8125 93.375C38.6875 104.062 39.25 103.5 25.1875 107.438C21.25 108.562 18.4375 111.375 17.3125 115.312C13.9375 129.375 13.9375 128.812 3.8125 138.938C1 141.75 -0.125 146.25 1 150.188C4.9375 163.688 4.9375 163.688 1 177.188C-0.125 181.125 1 185.625 3.8125 188.438C13.9375 198.562 13.9375 198.562 17.3125 212.062C18.4375 216 21.25 218.812 25.1875 219.938C26.3125 220.5 26.875 220.5 28 220.5V279C28 282.375 29.125 285.188 31.9375 286.875C34.75 288.562 38.125 288.562 40.9375 287.438L73 271.125L104.5 287.438C106.188 288 107.312 288 109 288H262C276.625 288 289 276.188 289 261.562V74.25C289 67.5 285.625 60.1875 280.562 55.125ZM217 18.5625C218.125 19.125 219.812 19.6875 220.938 20.8125L268.188 68.0625C269.312 69.1875 269.875 70.875 270.438 72.5625H217V18.5625ZM19.5625 178.312C22.375 165.938 22.375 161.438 19.5625 149.062C28 140.062 30.25 136.125 33.625 123.75C46 120.375 49.375 118.125 58.375 109.125C64 110.812 67.9375 111.375 73 111.375C77.5 111.375 81.4375 110.812 87.0625 109.125C95.5 118.125 99.4375 120.375 111.812 123.75C115.188 136.125 116.875 139.5 125.875 149.062C122.5 161.438 122.5 165.938 125.875 178.312C117.438 187.312 115.188 191.25 111.812 203.625C103.375 205.875 98.3125 207.562 90.4375 214.312C84.8125 212.062 79.1875 210.938 73 210.938C66.25 210.938 60.625 212.062 55 214.875C47.125 208.125 42.0625 205.875 33.625 203.625C30.25 191.25 28.5625 187.875 19.5625 178.312ZM76.9375 253.125C74.125 252 71.3125 252 68.5 253.125L46 264.938V230.625C46 231.188 46 231.188 46 231.188C48.25 233.438 51.0625 234 53.3125 234C55.5625 234 57.25 233.438 59.5 232.875C63.4375 230.062 67.9375 228.938 73 228.938C77.5 228.938 82 230.062 85.9375 232.312C88.1875 234 89.875 234 92.125 234C94.9375 234 97.1875 233.438 99.4375 231.188C99.4375 231.188 99.4375 231.188 100 230.625V264.938L76.9375 253.125ZM271 261.562C271 266.062 266.5 270.562 262 270.562H118V220.5C118.562 220.5 119.125 220.5 120.25 219.938C124.188 218.812 127 216 128.125 212.062C131.5 198 131.5 198.562 141.625 188.438C144.438 185.625 145.562 181.125 144.438 177.188C140.5 163.688 140.5 163.688 144.438 150.188C145.562 146.25 144.438 141.75 141.625 138.938C131.5 128.812 131.5 128.812 128.125 115.312C127 111.375 124.188 108.562 120.25 107.438C106.75 103.5 106.75 104.062 96.625 93.375C94.9375 91.6875 92.6875 91.125 91 90.5625V27.5625C91 22.5 94.9375 18 100 18H199V77.0625C199 84.375 204.625 90 212.5 90H271V261.562Z" fill="#103673"/>
</svg>
