<svg width="360" height="288" viewBox="0 0 360 288" fill="none" xmlns="http://www.w3.org/2000/svg">
<path d="M342 0H108C97.875 0 90 8.4375 90 18V72C59.625 72 36 96.1875 36 126C36 156.375 59.625 180 90 180C119.812 180 144 156.375 144 126C144 102.938 128.812 83.25 108 75.375V18H342V216H171.562C171 216 171 215.438 170.438 214.875C160.875 200.25 144.562 192.938 127.125 192.938C111.938 192.938 108 198 90 198C72 198 68.0625 192.938 52.3125 192.938C34.875 192.938 18.5625 200.25 9 214.875C3.375 223.312 0 233.438 0 244.688V265.5C0 278.438 9.5625 288 22.5 288H157.5C169.875 288 180 278.438 180 265.5V244.688C180 241.312 179.438 237.938 178.312 234H342C351.562 234 360 226.125 360 216V18C360 8.4375 351.562 0 342 0ZM126 126C126 146.25 109.688 162 90 162C69.75 162 54 146.25 54 126C54 106.312 69.75 90 90 90C109.688 90 126 106.312 126 126ZM162 265.5C162 268.312 159.75 270 157.5 270H22.5C19.6875 270 18 268.312 18 265.5V244.688C18 237.375 19.6875 230.625 23.625 224.438C29.8125 216 40.5 210.938 52.3125 210.938C64.6875 210.938 69.1875 216 90 216C110.25 216 115.312 210.938 127.125 210.938C138.938 210.938 149.625 216 155.812 224.438C159.75 230.625 162 237.375 162 244.688V265.5ZM190.125 86.0625C185.062 81 176.625 81 171 86.0625L156.938 100.688C159.188 106.875 160.875 114.188 161.438 121.5L180.562 101.812L216 137.25C218.812 140.062 222.188 141.75 225.562 141.75C228.938 141.75 232.312 140.062 235.125 137.25L268.312 104.625L286.875 123.188C289.125 125.438 291.938 126 294.75 126C300.375 126 306 122.062 306 115.312V61.3125C306 57.375 302.625 54 298.688 54H244.688C235.125 54 230.062 65.8125 236.812 73.125L255.375 91.6875L225.562 121.5L190.125 86.0625ZM288 72V98.4375L261.562 72H288Z" fill="#103673"/>
</svg>
